<?xml version="1.0" encoding="UTF-8" standalone="no"?>
<!DOCTYPE svg PUBLIC "-//W3C//DTD SVG 1.1//EN"
 "http://www.w3.org/Graphics/SVG/1.1/DTD/svg11.dtd">
<!-- Generated by graphviz version 15.1.0 (20260618.0150)
 -->
<!-- Title: Architecture Pages: 1 -->
<svg width="1359pt" height="1102pt"
 viewBox="0.00 0.00 1359.00 1102.00" xmlns="http://www.w3.org/2000/svg" xmlns:xlink="http://www.w3.org/1999/xlink">
<g id="graph0" class="graph" transform="scale(1 1) rotate(0) translate(32.4 1069.82)">
<title>Architecture</title>
<polygon fill="#f6f8fb" stroke="none" points="-32.4,32.4 -32.4,-1069.82 1326.6,-1069.82 1326.6,32.4 -32.4,32.4"/>
<text xml:space="preserve" text-anchor="middle" x="647.1" y="-1008.72" font-family="PingFang SC" font-size="26.00" fill="#152739">创意空间 · 系统架构</text>
<text xml:space="preserve" text-anchor="middle" x="647.1" y="-971.97" font-family="PingFang SC" font-size="26.00" fill="#152739">目标设计 v0.5 &#160;/ &#160;首期真实闭环</text>
<g id="clust1" class="cluster">
<title>clusterServer</title>
<path fill="#edf2f7" stroke="#d5dfe9" d="M20,-256.17C20,-256.17 955,-256.17 955,-256.17 961,-256.17 967,-262.17 967,-268.17 967,-268.17 967,-808.82 967,-808.82 967,-814.82 961,-820.82 955,-820.82 955,-820.82 20,-820.82 20,-820.82 14,-820.82 8,-814.82 8,-808.82 8,-808.82 8,-268.17 8,-268.17 8,-262.17 14,-256.17 20,-256.17"/>
<text xml:space="preserve" text-anchor="middle" x="487.5" y="-800.67" font-family="PingFang SC" font-size="17.00" fill="#152739">Go 模块化单体 &#160;· &#160;同一代码库，API / Worker 独立进程</text>
</g>
<g id="clust3" class="cluster">
<title>clusterDomains</title>
<path fill="#ffffff" stroke="#dce3ea" d="M28,-267.04C28,-267.04 709,-267.04 709,-267.04 715,-267.04 721,-273.04 721,-279.04 721,-279.04 721,-525.37 721,-525.37 721,-531.37 715,-537.37 709,-537.37 709,-537.37 28,-537.37 28,-537.37 22,-537.37 16,-531.37 16,-525.37 16,-525.37 16,-279.04 16,-279.04 16,-273.04 22,-267.04 28,-267.04"/>
<text xml:space="preserve" text-anchor="middle" x="368.5" y="-520.07" font-family="PingFang SC" font-size="14.00" fill="#152739">共享领域包（不是独立部署服务）</text>
</g>
<!-- browser -->
<g id="node1" class="node">
<title>browser</title>
<path fill="#e7f3ef" stroke="#7daf9e" stroke-width="1.3" d="M721.77,-955.92C721.77,-955.92 380.23,-955.92 380.23,-955.92 374.23,-955.92 368.23,-949.92 368.23,-943.92 368.23,-943.92 368.23,-881.07 368.23,-881.07 368.23,-875.07 374.23,-869.07 380.23,-869.07 380.23,-869.07 721.77,-869.07 721.77,-869.07 727.77,-869.07 733.77,-875.07 733.77,-881.07 733.77,-881.07 733.77,-943.92 733.77,-943.92 733.77,-949.92 727.77,-955.92 721.77,-955.92"/>
<text xml:space="preserve" text-anchor="middle" x="551" y="-930.87" font-family="PingFang SC" font-size="15.00" fill="#20364b">浏览器工作台</text>
<text xml:space="preserve" text-anchor="middle" x="551" y="-909.12" font-family="PingFang SC" font-size="15.00" fill="#20364b">个人资产侧栏 &#160;· &#160;React Flow 画布 &#160;· &#160;Agent 对话</text>
<text xml:space="preserve" text-anchor="middle" x="551" y="-887.37" font-family="PingFang SC" font-size="15.00" fill="#20364b">Zustand：确认基线 / 待提交命令 / 本地预览</text>
</g>
<!-- api -->
<g id="node2" class="node">
<title>api</title>
<path fill="#e3edf9" stroke="#7e9fc2" stroke-width="1.3" d="M659.52,-780.07C659.52,-780.07 442.47,-780.07 442.47,-780.07 436.47,-780.07 430.47,-774.07 430.47,-768.07 430.47,-768.07 430.47,-726.97 430.47,-726.97 430.47,-720.97 436.47,-714.97 442.47,-714.97 442.47,-714.97 659.52,-714.97 659.52,-714.97 665.52,-714.97 671.52,-720.97 671.52,-726.97 671.52,-726.97 671.52,-768.07 671.52,-768.07 671.52,-774.07 665.52,-780.07 659.52,-780.07"/>
<text xml:space="preserve" text-anchor="middle" x="551" y="-755.02" font-family="PingFang SC" font-size="15.00" fill="#20364b">API 进程</text>
<text xml:space="preserve" text-anchor="middle" x="551" y="-733.27" font-family="PingFang SC" font-size="15.00" fill="#20364b">鉴权 / REST / SSE / 媒体代理</text>
</g>
<!-- browser&#45;&gt;api -->
<g id="edge12" class="edge">
<title>browser&#45;&gt;api</title>
<path fill="none" stroke="#76899c" stroke-width="1.4" d="M551,-859.35C551,-836.87 551,-810.95 551,-789.83"/>
<polygon fill="#76899c" stroke="#76899c" stroke-width="1.4" points="548.38,-859.05 551,-866.56 553.63,-859.06 548.38,-859.05"/>
<polygon fill="#76899c" stroke="#76899c" stroke-width="1.4" points="553.63,-790.11 551,-782.61 548.38,-790.11 553.63,-790.11"/>
<text xml:space="preserve" text-anchor="middle" x="608.75" y="-834.67" font-family="PingFang SC" font-size="12.00" fill="#50677e">REST / SSE / Range</text>
</g>
<!-- oss -->
<g id="node12" class="node">
<title>oss</title>
<path fill="#fff4df" stroke="#c9ad72" stroke-width="1.3" d="M633.65,-190.06C633.65,-196.05 581.81,-200.92 518,-200.92 454.19,-200.92 402.35,-196.05 402.35,-190.06 402.35,-190.06 402.35,-92.36 402.35,-92.36 402.35,-86.37 454.19,-81.5 518,-81.5 581.81,-81.5 633.65,-86.37 633.65,-92.36 633.65,-92.36 633.65,-190.06 633.65,-190.06"/>
<path fill="none" stroke="#c9ad72" stroke-width="1.3" d="M633.65,-190.06C633.65,-184.07 581.81,-179.21 518,-179.21 454.19,-179.21 402.35,-184.07 402.35,-190.06"/>
<text xml:space="preserve" text-anchor="middle" x="518" y="-159.58" font-family="PingFang SC" font-size="15.00" fill="#20364b">OSS 私有对象</text>
<text xml:space="preserve" text-anchor="middle" x="518" y="-137.83" font-family="PingFang SC" font-size="15.00" fill="#20364b">creative&#45;v2：staging / blobs</text>
<text xml:space="preserve" text-anchor="middle" x="518" y="-116.08" font-family="PingFang SC" font-size="15.00" fill="#20364b">旧对象前缀独立保留</text>
</g>
<!-- browser&#45;&gt;oss -->
<g id="edge13" class="edge">
<title>browser&#45;&gt;oss</title>
<path fill="none" stroke="#3e8974" stroke-width="1.4" stroke-dasharray="5,2" d="M734.35,-902.36C812.71,-891.12 901.86,-867.89 971,-820.82 1135.72,-708.69 1230.76,-600.54 1160,-414.27 1119.83,-308.51 1092.58,-273.71 991,-223.92 922.2,-190.2 721.29,-219.65 647,-200.92 645.01,-200.42 643.02,-199.89 641.02,-199.33"/>
<polygon fill="#3e8974" stroke="#3e8974" stroke-width="1.4" points="642.2,-196.94 634.26,-197.32 640.71,-201.98 642.2,-196.94"/>
<text xml:space="preserve" text-anchor="middle" x="1238.7" y="-568.47" font-family="PingFang SC" font-size="12.00" fill="#50677e">短期预签名分片 PUT</text>
<text xml:space="preserve" text-anchor="middle" x="1238.7" y="-551.22" font-family="PingFang SC" font-size="12.00" fill="#50677e">仅 staging</text>
</g>
<!-- app -->
<g id="node4" class="node">
<title>app</title>
<path fill="#ffffff" stroke="#d4dce5" stroke-width="2" d="M777.4,-667.97C777.4,-667.97 448.6,-667.97 448.6,-667.97 442.6,-667.97 436.6,-661.97 436.6,-655.97 436.6,-655.97 436.6,-614.87 436.6,-614.87 436.6,-608.87 442.6,-602.87 448.6,-602.87 448.6,-602.87 777.4,-602.87 777.4,-602.87 783.4,-602.87 789.4,-608.87 789.4,-614.87 789.4,-614.87 789.4,-655.97 789.4,-655.97 789.4,-661.97 783.4,-667.97 777.4,-667.97"/>
<text xml:space="preserve" text-anchor="middle" x="613" y="-642.92" font-family="PingFang SC" font-size="15.00" fill="#20364b">共享应用编排与领域入口</text>
<text xml:space="preserve" text-anchor="middle" x="613" y="-621.17" font-family="PingFang SC" font-size="15.00" fill="#20364b">账号作用域 · 命令前置条件 · 幂等回执 · 短事务</text>
</g>
<!-- api&#45;&gt;app -->
<g id="edge6" class="edge">
<title>api&#45;&gt;app</title>
<path fill="none" stroke="#76899c" stroke-width="1.4" d="M569.1,-714.38C575.66,-702.72 583.17,-689.4 590.09,-677.11"/>
<polygon fill="#76899c" stroke="#76899c" stroke-width="1.4" points="592.34,-678.46 593.73,-670.64 587.76,-675.88 592.34,-678.46"/>
</g>
<!-- worker -->
<g id="node3" class="node">
<title>worker</title>
<path fill="#eee8fa" stroke="#a18bc6" stroke-width="1.3" d="M881.65,-780.07C881.65,-780.07 710.35,-780.07 710.35,-780.07 704.35,-780.07 698.35,-774.07 698.35,-768.07 698.35,-768.07 698.35,-726.97 698.35,-726.97 698.35,-720.97 704.35,-714.97 710.35,-714.97 710.35,-714.97 881.65,-714.97 881.65,-714.97 887.65,-714.97 893.65,-720.97 893.65,-726.97 893.65,-726.97 893.65,-768.07 893.65,-768.07 893.65,-774.07 887.65,-780.07 881.65,-780.07"/>
<text xml:space="preserve" text-anchor="middle" x="796" y="-755.02" font-family="PingFang SC" font-size="15.00" fill="#20364b">Worker 进程</text>
<text xml:space="preserve" text-anchor="middle" x="796" y="-733.27" font-family="PingFang SC" font-size="15.00" fill="#20364b">Agent / 媒体 / 维护任务</text>
</g>
<!-- worker&#45;&gt;app -->
<g id="edge7" class="edge">
<title>worker&#45;&gt;app</title>
<path fill="none" stroke="#76899c" stroke-width="1.4" d="M742.58,-714.38C721.34,-701.6 696.78,-686.82 674.78,-673.59"/>
<polygon fill="#76899c" stroke="#76899c" stroke-width="1.4" points="676.4,-671.5 668.62,-669.88 673.7,-676 676.4,-671.5"/>
</g>
<!-- library -->
<g id="node5" class="node">
<title>library</title>
<path fill="#e7f3ef" stroke="#d4dce5" stroke-width="1.3" d="M474.9,-490.24C474.9,-490.24 281.1,-490.24 281.1,-490.24 275.1,-490.24 269.1,-484.24 269.1,-478.24 269.1,-478.24 269.1,-437.14 269.1,-437.14 269.1,-431.14 275.1,-425.14 281.1,-425.14 281.1,-425.14 474.9,-425.14 474.9,-425.14 480.9,-425.14 486.9,-431.14 486.9,-437.14 486.9,-437.14 486.9,-478.24 486.9,-478.24 486.9,-484.24 480.9,-490.24 474.9,-490.24"/>
<text xml:space="preserve" text-anchor="middle" x="378" y="-465.19" font-family="PingFang SC" font-size="15.00" fill="#20364b">个人库</text>
<text xml:space="preserve" text-anchor="middle" x="378" y="-443.44" font-family="PingFang SC" font-size="15.00" fill="#20364b">资产 / 分组 / 标签 / 回收站</text>
</g>
<!-- app&#45;&gt;library -->
<g id="edge8" class="edge">
<title>app&#45;&gt;library</title>
<path fill="none" stroke="#76899c" stroke-width="1.4" d="M569.62,-601.98C529.67,-572.11 470.4,-527.78 428.37,-496.36"/>
<polygon fill="#76899c" stroke="#76899c" stroke-width="1.4" points="430,-494.3 422.42,-491.91 426.86,-498.51 430,-494.3"/>
</g>
<!-- canvas -->
<g id="node6" class="node">
<title>canvas</title>
<path fill="#e3edf9" stroke="#d4dce5" stroke-width="1.3" d="M229.9,-490.24C229.9,-490.24 36.1,-490.24 36.1,-490.24 30.1,-490.24 24.1,-484.24 24.1,-478.24 24.1,-478.24 24.1,-437.14 24.1,-437.14 24.1,-431.14 30.1,-425.14 36.1,-425.14 36.1,-425.14 229.9,-425.14 229.9,-425.14 235.9,-425.14 241.9,-431.14 241.9,-437.14 241.9,-437.14 241.9,-478.24 241.9,-478.24 241.9,-484.24 235.9,-490.24 229.9,-490.24"/>
<text xml:space="preserve" text-anchor="middle" x="133" y="-465.19" font-family="PingFang SC" font-size="15.00" fill="#20364b">创作画布</text>
<text xml:space="preserve" text-anchor="middle" x="133" y="-443.44" font-family="PingFang SC" font-size="15.00" fill="#20364b">项目 / 节点 / 连线 / 节点组</text>
</g>
<!-- app&#45;&gt;canvas -->
<g id="edge9" class="edge">
<title>app&#45;&gt;canvas</title>
<path fill="none" stroke="#76899c" stroke-width="1.4" d="M453.04,-601.92C390.15,-586.34 318.24,-564.96 256,-537.37 231.03,-526.3 205.28,-510.61 183.84,-496.15"/>
<polygon fill="#76899c" stroke="#76899c" stroke-width="1.4" points="185.57,-494.15 177.9,-492.08 182.61,-498.48 185.57,-494.15"/>
</g>
<!-- agent -->
<g id="node7" class="node">
<title>agent</title>
<path fill="#eee8fa" stroke="#d4dce5" stroke-width="1.3" d="M700.52,-501.12C700.52,-501.12 525.48,-501.12 525.48,-501.12 519.48,-501.12 513.48,-495.12 513.48,-489.12 513.48,-489.12 513.48,-426.27 513.48,-426.27 513.48,-420.27 519.48,-414.27 525.48,-414.27 525.48,-414.27 700.52,-414.27 700.52,-414.27 706.52,-414.27 712.52,-420.27 712.52,-426.27 712.52,-426.27 712.52,-489.12 712.52,-489.12 712.52,-495.12 706.52,-501.12 700.52,-501.12"/>
<text xml:space="preserve" text-anchor="middle" x="613" y="-476.07" font-family="PingFang SC" font-size="15.00" fill="#20364b">Agent</text>
<text xml:space="preserve" text-anchor="middle" x="613" y="-454.32" font-family="PingFang SC" font-size="15.00" fill="#20364b">Eino ADK / 业务Harness</text>
<text xml:space="preserve" text-anchor="middle" x="613" y="-432.57" font-family="PingFang SC" font-size="15.00" fill="#20364b">上下文 / Tools / Skills</text>
</g>
<!-- app&#45;&gt;agent -->
<g id="edge10" class="edge">
<title>app&#45;&gt;agent</title>
<path fill="none" stroke="#76899c" stroke-width="1.4" d="M613,-602.19C613,-576.71 613,-540.62 613,-511.01"/>
<polygon fill="#76899c" stroke="#76899c" stroke-width="1.4" points="615.63,-511.27 613,-503.77 610.38,-511.27 615.63,-511.27"/>
</g>
<!-- media -->
<g id="node9" class="node">
<title>media</title>
<path fill="#fff4df" stroke="#d4dce5" stroke-width="1.3" d="M690.4,-340.14C690.4,-340.14 511.6,-340.14 511.6,-340.14 505.6,-340.14 499.6,-334.14 499.6,-328.14 499.6,-328.14 499.6,-287.04 499.6,-287.04 499.6,-281.04 505.6,-275.04 511.6,-275.04 511.6,-275.04 690.4,-275.04 690.4,-275.04 696.4,-275.04 702.4,-281.04 702.4,-287.04 702.4,-287.04 702.4,-328.14 702.4,-328.14 702.4,-334.14 696.4,-340.14 690.4,-340.14"/>
<text xml:space="preserve" text-anchor="middle" x="601" y="-315.09" font-family="PingFang SC" font-size="15.00" fill="#20364b">媒体</text>
<text xml:space="preserve" text-anchor="middle" x="601" y="-293.34" font-family="PingFang SC" font-size="15.00" fill="#20364b">上传 / 校验 / 读取 / 清理</text>
</g>
<!-- app&#45;&gt;media -->
<g id="edge11" class="edge">
<title>app&#45;&gt;media</title>
<path fill="none" stroke="#76899c" stroke-width="1.4" d="M662.07,-601.91C731.67,-551.77 844.35,-453.11 785,-374.02 763.05,-344.77 740.55,-362.99 706,-351.02 699.74,-348.85 693.31,-346.52 686.87,-344.1"/>
<polygon fill="#76899c" stroke="#76899c" stroke-width="1.4" points="688,-341.72 680.06,-341.51 686.14,-346.63 688,-341.72"/>
<text xml:space="preserve" text-anchor="middle" x="825.68" y="-454.92" font-family="PingFang SC" font-size="12.00" fill="#50677e">上传编排</text>
</g>
<!-- pg -->
<g id="node11" class="node">
<title>pg</title>
<path fill="#e3edf9" stroke="#7e9fc2" stroke-width="1.3" d="M1109.65,-190.06C1109.65,-196.05 1063.19,-200.92 1006,-200.92 948.81,-200.92 902.35,-196.05 902.35,-190.06 902.35,-190.06 902.35,-92.36 902.35,-92.36 902.35,-86.37 948.81,-81.5 1006,-81.5 1063.19,-81.5 1109.65,-86.37 1109.65,-92.36 1109.65,-92.36 1109.65,-190.06 1109.65,-190.06"/>
<path fill="none" stroke="#7e9fc2" stroke-width="1.3" d="M1109.65,-190.06C1109.65,-184.07 1063.19,-179.21 1006,-179.21 948.81,-179.21 902.35,-184.07 902.35,-190.06"/>
<text xml:space="preserve" text-anchor="middle" x="1006" y="-159.58" font-family="PingFang SC" font-size="15.00" fill="#20364b">PostgreSQL 17</text>
<text xml:space="preserve" text-anchor="middle" x="1006" y="-137.83" font-family="PingFang SC" font-size="15.00" fill="#20364b">业务事实 / 显式 key 关系</text>
<text xml:space="preserve" text-anchor="middle" x="1006" y="-116.08" font-family="PingFang SC" font-size="15.00" fill="#20364b">命令回执 / River 持久任务</text>
</g>
<!-- app&#45;&gt;pg -->
<g id="edge14" class="edge">
<title>app&#45;&gt;pg</title>
<path fill="none" stroke="#76899c" stroke-width="1.4" d="M737.11,-601.92C778.03,-586.97 821.78,-566.02 856,-537.37 930.8,-474.75 937.72,-442.35 972,-351.02 988.88,-306.04 997.39,-252.51 1001.67,-210.91"/>
<polygon fill="#76899c" stroke="#76899c" stroke-width="1.4" points="1004.28,-211.24 1002.39,-203.52 999.05,-210.73 1004.28,-211.24"/>
<text xml:space="preserve" text-anchor="middle" x="1023.88" y="-379.87" font-family="PingFang SC" font-size="12.00" fill="#50677e">领域仓储 / 同事务入队</text>
</g>
<!-- content -->
<g id="node8" class="node">
<title>content</title>
<path fill="#fff4df" stroke="#d4dce5" stroke-width="1.3" d="M412.9,-340.14C412.9,-340.14 207.1,-340.14 207.1,-340.14 201.1,-340.14 195.1,-334.14 195.1,-328.14 195.1,-328.14 195.1,-287.04 195.1,-287.04 195.1,-281.04 201.1,-275.04 207.1,-275.04 207.1,-275.04 412.9,-275.04 412.9,-275.04 418.9,-275.04 424.9,-281.04 424.9,-287.04 424.9,-287.04 424.9,-328.14 424.9,-328.14 424.9,-334.14 418.9,-340.14 412.9,-340.14"/>
<text xml:space="preserve" text-anchor="middle" x="310" y="-315.09" font-family="PingFang SC" font-size="15.00" fill="#20364b">内容与修订</text>
<text xml:space="preserve" text-anchor="middle" x="310" y="-293.34" font-family="PingFang SC" font-size="15.00" fill="#20364b">不可变版本 / 来源 / 合法引用</text>
</g>
<!-- library&#45;&gt;content -->
<g id="edge1" class="edge">
<title>library&#45;&gt;content</title>
<path fill="none" stroke="#76899c" stroke-width="1.4" d="M363.25,-424.56C353.09,-402.43 339.51,-372.87 328.61,-349.13"/>
<polygon fill="#76899c" stroke="#76899c" stroke-width="1.4" points="331.13,-348.31 325.61,-342.59 326.35,-350.5 331.13,-348.31"/>
<text xml:space="preserve" text-anchor="middle" x="370.04" y="-379.87" font-family="PingFang SC" font-size="12.00" fill="#50677e">引用版本</text>
</g>
<!-- canvas&#45;&gt;content -->
<g id="edge2" class="edge">
<title>canvas&#45;&gt;content</title>
<path fill="none" stroke="#76899c" stroke-width="1.4" d="M171.41,-424.56C198.78,-401.66 235.68,-370.78 264.52,-346.65"/>
<polygon fill="#76899c" stroke="#76899c" stroke-width="1.4" points="265.98,-348.85 270.04,-342.03 262.61,-344.83 265.98,-348.85"/>
<text xml:space="preserve" text-anchor="middle" x="250.81" y="-379.87" font-family="PingFang SC" font-size="12.00" fill="#50677e">引用版本</text>
</g>
<!-- agent&#45;&gt;content -->
<g id="edge3" class="edge">
<title>agent&#45;&gt;content</title>
<path fill="none" stroke="#76899c" stroke-width="1.4" d="M513.11,-418.41C508.69,-416.97 504.31,-415.58 500,-414.27 457.19,-401.27 431.76,-424.67 402,-391.27 396.87,-385.51 403.89,-380.68 400,-374.02 393.94,-363.65 385.52,-354.46 376.24,-346.49"/>
<polygon fill="#76899c" stroke="#76899c" stroke-width="1.4" points="378.13,-344.64 370.65,-341.96 374.83,-348.72 378.13,-344.64"/>
<text xml:space="preserve" text-anchor="middle" x="426" y="-379.87" font-family="PingFang SC" font-size="12.00" fill="#50677e">冻结输入</text>
</g>
<!-- gateway -->
<g id="node10" class="node">
<title>gateway</title>
<path fill="#e5e7f8" stroke="#8d94bd" stroke-width="1.3" d="M946.9,-351.02C946.9,-351.02 741.1,-351.02 741.1,-351.02 735.1,-351.02 729.1,-345.02 729.1,-339.02 729.1,-339.02 729.1,-276.17 729.1,-276.17 729.1,-270.17 735.1,-264.17 741.1,-264.17 741.1,-264.17 946.9,-264.17 946.9,-264.17 952.9,-264.17 958.9,-270.17 958.9,-276.17 958.9,-276.17 958.9,-339.02 958.9,-339.02 958.9,-345.02 952.9,-351.02 946.9,-351.02"/>
<text xml:space="preserve" text-anchor="middle" x="844" y="-325.97" font-family="PingFang SC" font-size="15.00" fill="#20364b">LLM Gateway（平台模块）</text>
<text xml:space="preserve" text-anchor="middle" x="844" y="-304.22" font-family="PingFang SC" font-size="15.00" fill="#20364b">统一接口 / 供应商适配 / 限流</text>
<text xml:space="preserve" text-anchor="middle" x="844" y="-282.47" font-family="PingFang SC" font-size="15.00" fill="#20364b">请求 / 观测 / 预算 / 成本</text>
</g>
<!-- agent&#45;&gt;gateway -->
<g id="edge5" class="edge">
<title>agent&#45;&gt;gateway</title>
<path fill="none" stroke="#76899c" stroke-width="1.4" d="M680.13,-413.66C708.01,-395.78 740.48,-374.96 769.13,-356.59"/>
<polygon fill="#76899c" stroke="#76899c" stroke-width="1.4" points="770.43,-358.88 775.32,-352.62 767.59,-354.46 770.43,-358.88"/>
<text xml:space="preserve" text-anchor="middle" x="831.8" y="-379.87" font-family="PingFang SC" font-size="12.00" fill="#50677e">Harness 调用，首期由 Worker 执行</text>
</g>
<!-- content&#45;&gt;media -->
<g id="edge4" class="edge">
<title>content&#45;&gt;media</title>
<path fill="none" stroke="#76899c" stroke-width="1.4" d="M425.43,-307.59C446.62,-307.59 468.7,-307.59 489.77,-307.59"/>
<polygon fill="#76899c" stroke="#76899c" stroke-width="1.4" points="489.75,-310.22 497.25,-307.59 489.75,-304.97 489.75,-310.22"/>
<text xml:space="preserve" text-anchor="middle" x="462.25" y="-316.44" font-family="PingFang SC" font-size="12.00" fill="#50677e">媒体资源</text>
</g>
<!-- media&#45;&gt;oss -->
<g id="edge16" class="edge">
<title>media&#45;&gt;oss</title>
<path fill="none" stroke="#76899c" stroke-width="1.4" d="M580.59,-266.16C572.02,-249.2 561.83,-229.01 552.18,-209.9"/>
<polygon fill="#76899c" stroke="#76899c" stroke-width="1.4" points="578.12,-267.11 583.84,-272.62 582.81,-264.74 578.12,-267.11"/>
<polygon fill="#76899c" stroke="#76899c" stroke-width="1.4" points="554.61,-208.9 548.89,-203.39 549.93,-211.27 554.61,-208.9"/>
<text xml:space="preserve" text-anchor="middle" x="640.43" y="-229.77" font-family="PingFang SC" font-size="12.00" fill="#50677e">校验 / 版本读取 / 精确清理</text>
</g>
<!-- gateway&#45;&gt;pg -->
<g id="edge18" class="edge">
<title>gateway&#45;&gt;pg</title>
<path fill="none" stroke="#76899c" stroke-width="1.4" d="M855.29,-263.88C860.37,-250.11 867.42,-235.45 877,-223.92 883.29,-216.35 890.47,-209.25 898.14,-202.65"/>
<polygon fill="#76899c" stroke="#76899c" stroke-width="1.4" points="899.57,-204.88 903.69,-198.08 896.23,-200.83 899.57,-204.88"/>
<text xml:space="preserve" text-anchor="middle" x="931" y="-229.77" font-family="PingFang SC" font-size="12.00" fill="#50677e">统一用量与成本事实</text>
</g>
<!-- models -->
<g id="node13" class="node">
<title>models</title>
<path fill="#eee8fa" stroke="#a18bc6" stroke-width="1.3" d="M863.4,-173.76C863.4,-173.76 672.6,-173.76 672.6,-173.76 666.6,-173.76 660.6,-167.76 660.6,-161.76 660.6,-161.76 660.6,-120.66 660.6,-120.66 660.6,-114.66 666.6,-108.66 672.6,-108.66 672.6,-108.66 863.4,-108.66 863.4,-108.66 869.4,-108.66 875.4,-114.66 875.4,-120.66 875.4,-120.66 875.4,-161.76 875.4,-161.76 875.4,-167.76 869.4,-173.76 863.4,-173.76"/>
<text xml:space="preserve" text-anchor="middle" x="768" y="-148.71" font-family="PingFang SC" font-size="15.00" fill="#20364b">模型供应商</text>
<text xml:space="preserve" text-anchor="middle" x="768" y="-126.96" font-family="PingFang SC" font-size="15.00" fill="#20364b">能力适配 / 实际调用 / 用量</text>
</g>
<!-- gateway&#45;&gt;models -->
<g id="edge17" class="edge">
<title>gateway&#45;&gt;models</title>
<path fill="none" stroke="#76899c" stroke-width="1.4" d="M780.27,-256.49C776.66,-251.65 773.5,-246.54 771,-241.17 762.77,-223.46 761.25,-201.99 762.11,-183.57"/>
<polygon fill="#76899c" stroke="#76899c" stroke-width="1.4" points="778.15,-258.05 784.93,-262.21 782.22,-254.73 778.15,-258.05"/>
<polygon fill="#76899c" stroke="#76899c" stroke-width="1.4" points="764.73,-183.76 762.63,-176.1 759.49,-183.4 764.73,-183.76"/>
<text xml:space="preserve" text-anchor="middle" x="807" y="-229.77" font-family="PingFang SC" font-size="12.00" fill="#50677e">适配多供应商</text>
</g>
<!-- pg&#45;&gt;worker -->
<g id="edge15" class="edge">
<title>pg&#45;&gt;worker</title>
<path fill="none" stroke="#76899c" stroke-width="1.4" stroke-dasharray="5,2" d="M1049.46,-201.54C1080.98,-252.13 1114.31,-326.7 1091,-391.27 1041.58,-528.14 913.93,-649.51 843.84,-708.56"/>
<polygon fill="#76899c" stroke="#76899c" stroke-width="1.4" points="842.52,-706.24 838.45,-713.06 845.89,-710.26 842.52,-706.24"/>
<text xml:space="preserve" text-anchor="middle" x="1117.63" y="-454.92" font-family="PingFang SC" font-size="12.00" fill="#50677e">领取持久任务</text>
</g>
<!-- legend -->
<g id="node14" class="node">
<title>legend</title>
<path fill="white" stroke="none" stroke-width="1.3" d="M920.75,-34.5C920.75,-34.5 615.25,-34.5 615.25,-34.5 609.5,-34.5 603.75,-28.75 603.75,-23 603.75,-23 603.75,-11.5 603.75,-11.5 603.75,-5.75 609.5,0 615.25,0 615.25,0 920.75,0 920.75,0 926.5,0 932.25,-5.75 932.25,-11.5 932.25,-11.5 932.25,-23 932.25,-23 932.25,-28.75 926.5,-34.5 920.75,-34.5"/>
<text xml:space="preserve" text-anchor="middle" x="768" y="-23.1" font-family="PingFang SC" font-size="12.00" fill="#65798b">实线：调用或数据读写 &#160;&#160;&#160;&#160;虚线：异步任务 / 受限直传</text>
<text xml:space="preserve" text-anchor="middle" x="768" y="-5.85" font-family="PingFang SC" font-size="12.00" fill="#65798b">网络与媒体处理不持数据库事务；人工与 Agent 共用领域命令</text>
</g>
<!-- pg&#45;&gt;legend -->
<!-- oss&#45;&gt;legend -->
<!-- models&#45;&gt;legend -->
</g>
</svg>
